<svg  viewBox="0 0 160 75" fill="none"
      xmlns="http://www.w3.org/2000/svg">
    <path
            d="M4.72992 21.3707C5.64357 21.6511 5.73354 22.5966 5.89496 23.3118C6.9092 27.5927 8.06059 31.8432 8.80051 36.1848C10.3511 45.1206 11.673 54.107 13.1271 63.0105C13.2428 63.7358 13.4043 64.451 13.6621 65.1984C14.4137 61.8137 14.6017 58.393 15.404 55.0507C15.6376 55.0526 15.8255 55.0647 16.0591 55.0666C16.1598 55.6343 16.357 56.2343 16.3205 56.8323C15.9732 61.522 15.5851 66.2744 15.1463 70.9843C14.9863 72.7361 14.1019 73.2538 12.8489 72.3513C11.8953 71.6507 11.0181 70.7722 10.2323 69.8735C8.5494 67.8862 6.90717 65.8362 5.26495 63.7862C4.20061 62.4129 4.18061 62.2027 4.12282 60.1237C7.19806 61.5345 8.51306 65.0515 11.0947 67.1616C11.0754 66.4686 11.1626 65.9129 11.0669 65.3977C8.96 51.5969 6.85813 37.8486 4.75126 24.0478C4.62556 23.2175 4.17483 22.4055 4.72992 21.3707Z"
            fill="#00A706"/>
    <path
            d="M47.5271 9.96046C48.5407 10.5562 48.535 11.7287 48.6375 12.6417C49.3063 18.12 50.1355 23.5999 50.4833 29.0752C51.2306 40.3521 51.7105 51.6266 52.3512 62.8373C52.4003 63.7498 52.5028 64.6628 52.712 65.6419C53.9617 61.7449 54.5702 57.6464 55.873 53.815C56.1402 53.8826 56.3539 53.9498 56.6211 54.0174C56.671 54.7345 56.8277 55.5176 56.7172 56.2332C55.7803 61.8269 54.7896 67.4853 53.7457 73.078C53.361 75.159 52.2891 75.5399 50.9586 74.0944C49.9475 72.9775 49.0444 71.6662 48.2483 70.3559C46.5503 67.4738 44.9061 64.527 43.262 61.5803C42.2015 59.6161 42.2028 59.3555 42.3757 56.8165C45.7338 59.3883 46.8347 64.0238 49.5472 67.3062C49.6049 66.4599 49.7686 65.81 49.7183 65.1581C48.8935 47.822 48.0684 30.5511 47.2437 13.215C47.1953 12.1723 46.7727 11.0609 47.5271 9.96046Z"
            fill="#00A706"/>
    <path
            d="M81.263 0.60181C82.2336 1.38544 82.1495 2.70796 82.1907 3.74948C82.4911 10.005 82.9514 16.2799 82.9321 22.4969C82.9233 35.3045 82.648 48.08 82.5373 60.8013C82.5252 61.8364 82.5664 62.8779 82.7095 64.0058C84.2157 59.7454 85.0963 55.1874 86.651 51.007C86.9128 51.1127 87.1213 51.2119 87.3832 51.3176C87.3851 52.1322 87.4889 53.0333 87.3309 53.8286C86.0231 60.0379 84.6573 66.3142 83.2429 72.5106C82.7203 74.8167 81.6263 75.1288 80.3967 73.3513C79.4635 71.9799 78.6509 70.4009 77.9448 68.8348C76.4449 65.3959 75.0029 61.8899 73.561 58.3839C72.6352 56.0508 72.6539 55.7569 72.996 52.9108C76.1715 56.182 76.959 61.5339 79.4435 65.5361C79.5576 64.5874 79.7642 63.872 79.7576 63.1308C80.0943 43.4771 80.4262 23.897 80.7629 4.24332C80.7843 3.06129 80.4374 1.7607 81.263 0.60181Z"
            fill="#00A706"/>
    <path
            d="M117.667 3.79559C118.419 4.73338 118.219 5.96471 118.153 6.95634C117.802 12.923 117.586 18.9406 116.967 24.8056C115.717 36.8945 114.243 48.8987 112.914 60.8854C112.803 61.86 112.738 62.8517 112.75 63.9456C114.448 60.231 115.642 56.1078 117.374 52.4786C117.587 52.6317 117.755 52.768 117.968 52.9211C117.891 53.6906 117.892 54.5624 117.68 55.2809C115.962 60.8759 114.188 66.5222 112.38 72.0832C111.711 74.1536 110.747 74.225 109.871 72.2962C109.208 70.8111 108.667 69.1548 108.217 67.5323C107.271 63.9798 106.381 60.3759 105.491 56.772C104.928 54.3806 104.972 54.107 105.54 51.4899C107.932 55.2259 108.084 60.439 109.816 64.724C110.005 63.8516 110.251 63.2184 110.317 62.5174C112.511 44.0325 114.693 25.6161 116.887 7.13124C117.02 6.01975 116.85 4.72119 117.667 3.79559Z"
            fill="#00A706"/>
    <path
            d="M152.064 21.3219C152.742 22.2827 152.49 23.1644 152.378 23.905C151.751 28.3756 151.25 32.9282 150.369 37.2346C148.578 46.1197 146.576 54.868 144.715 63.6494C144.561 64.3626 144.45 65.1031 144.409 65.9474C146.223 63.6375 147.572 60.8524 149.415 58.6189C149.613 58.8047 149.768 58.9631 149.966 59.1489C149.854 59.7151 149.813 60.3851 149.574 60.8692C147.649 64.6168 145.667 68.3861 143.657 72.0791C142.912 73.4551 141.981 73.2018 141.232 71.44C140.666 70.0873 140.227 68.6424 139.872 67.2522C139.134 64.2212 138.453 61.1686 137.772 58.1159C137.346 56.0991 137.402 55.9031 138.076 54.0748C140.196 57.7091 140.089 61.7618 141.547 65.6066C141.771 64.9971 142.039 64.5893 142.136 64.0721C145.146 50.5766 148.142 37.13 151.151 23.6344C151.333 22.8233 151.233 21.7716 152.064 21.3219Z"
            fill="#00A706"/>
</svg>
