<svg width="24" height="28" viewBox="0 0 24 28" fill="none" xmlns="http://www.w3.org/2000/svg">
    <path
            d="M12 16.6667C11.6222 16.6667 11.3056 16.5389 11.05 16.2833C10.7944 16.0278 10.6667 15.7111 10.6667 15.3333C10.6667 14.9556 10.7944 14.6389 11.05 14.3833C11.3056 14.1278 11.6222 14 12 14C12.3778 14 12.6944 14.1278 12.95 14.3833C13.2056 14.6389 13.3333 14.9556 13.3333 15.3333C13.3333 15.7111 13.2056 16.0278 12.95 16.2833C12.6944 16.5389 12.3778 16.6667 12 16.6667ZM6.66667 16.6667C6.28889 16.6667 5.97222 16.5389 5.71667 16.2833C5.46111 16.0278 5.33333 15.7111 5.33333 15.3333C5.33333 14.9556 5.46111 14.6389 5.71667 14.3833C5.97222 14.1278 6.28889 14 6.66667 14C7.04444 14 7.36111 14.1278 7.61667 14.3833C7.87222 14.6389 8 14.9556 8 15.3333C8 15.7111 7.87222 16.0278 7.61667 16.2833C7.36111 16.5389 7.04444 16.6667 6.66667 16.6667ZM17.3333 16.6667C16.9556 16.6667 16.6389 16.5389 16.3833 16.2833C16.1278 16.0278 16 15.7111 16 15.3333C16 14.9556 16.1278 14.6389 16.3833 14.3833C16.6389 14.1278 16.9556 14 17.3333 14C17.7111 14 18.0278 14.1278 18.2833 14.3833C18.5389 14.6389 18.6667 14.9556 18.6667 15.3333C18.6667 15.7111 18.5389 16.0278 18.2833 16.2833C18.0278 16.5389 17.7111 16.6667 17.3333 16.6667ZM12 22C11.6222 22 11.3056 21.8722 11.05 21.6167C10.7944 21.3611 10.6667 21.0444 10.6667 20.6667C10.6667 20.2889 10.7944 19.9722 11.05 19.7167C11.3056 19.4611 11.6222 19.3333 12 19.3333C12.3778 19.3333 12.6944 19.4611 12.95 19.7167C13.2056 19.9722 13.3333 20.2889 13.3333 20.6667C13.3333 21.0444 13.2056 21.3611 12.95 21.6167C12.6944 21.8722 12.3778 22 12 22ZM6.66667 22C6.28889 22 5.97222 21.8722 5.71667 21.6167C5.46111 21.3611 5.33333 21.0444 5.33333 20.6667C5.33333 20.2889 5.46111 19.9722 5.71667 19.7167C5.97222 19.4611 6.28889 19.3333 6.66667 19.3333C7.04444 19.3333 7.36111 19.4611 7.61667 19.7167C7.87222 19.9722 8 20.2889 8 20.6667C8 21.0444 7.87222 21.3611 7.61667 21.6167C7.36111 21.8722 7.04444 22 6.66667 22ZM17.3333 22C16.9556 22 16.6389 21.8722 16.3833 21.6167C16.1278 21.3611 16 21.0444 16 20.6667C16 20.2889 16.1278 19.9722 16.3833 19.7167C16.6389 19.4611 16.9556 19.3333 17.3333 19.3333C17.7111 19.3333 18.0278 19.4611 18.2833 19.7167C18.5389 19.9722 18.6667 20.2889 18.6667 20.6667C18.6667 21.0444 18.5389 21.3611 18.2833 21.6167C18.0278 21.8722 17.7111 22 17.3333 22ZM2.66667 27.3333C1.93333 27.3333 1.30556 27.0722 0.783333 26.55C0.261111 26.0278 0 25.4 0 24.6667V6C0 5.26667 0.261111 4.63889 0.783333 4.11667C1.30556 3.59445 1.93333 3.33333 2.66667 3.33333H4V0.666668H6.66667V3.33333H17.3333V0.666668H20V3.33333H21.3333C22.0667 3.33333 22.6944 3.59445 23.2167 4.11667C23.7389 4.63889 24 5.26667 24 6V24.6667C24 25.4 23.7389 26.0278 23.2167 26.55C22.6944 27.0722 22.0667 27.3333 21.3333 27.3333H2.66667ZM2.66667 24.6667H21.3333V11.3333H2.66667V24.6667Z"
            fill="#00A706"/>
</svg>
